<?xml version="1.0" encoding="UTF-8" standalone="no"?>
<!DOCTYPE svg PUBLIC "-//W3C//DTD SVG 1.1//EN"
 "http://www.w3.org/Graphics/SVG/1.1/DTD/svg11.dtd">
<!-- Generated by graphviz version 2.40.1 (0)
 -->
<!-- Title: snakemake_dag Pages: 1 -->
<svg width="850pt" height="476pt"
 viewBox="0.00 0.00 849.50 476.00" xmlns="http://www.w3.org/2000/svg" xmlns:xlink="http://www.w3.org/1999/xlink">
<g id="graph0" class="graph" transform="scale(1 1) rotate(0) translate(4 472)">
<title>snakemake_dag</title>
<polygon fill="#ffffff" stroke="transparent" points="-4,4 -4,-472 845.5,-472 845.5,4 -4,4"/>
<!-- 0 -->
<g id="node1" class="node">
<title>0</title>
<path fill="none" stroke="#d85656" stroke-width="2" d="M589,-36C589,-36 559,-36 559,-36 553,-36 547,-30 547,-24 547,-24 547,-12 547,-12 547,-6 553,0 559,0 559,0 589,0 589,0 595,0 601,-6 601,-12 601,-12 601,-24 601,-24 601,-30 595,-36 589,-36"/>
<text text-anchor="middle" x="574" y="-15.5" font-family="sans" font-size="10.00" fill="#000000">all</text>
</g>
<!-- 1 -->
<g id="node2" class="node">
<title>1</title>
<path fill="none" stroke="#56d8c9" stroke-width="2" d="M207,-108C207,-108 135,-108 135,-108 129,-108 123,-102 123,-96 123,-96 123,-84 123,-84 123,-78 129,-72 135,-72 135,-72 207,-72 207,-72 213,-72 219,-78 219,-84 219,-84 219,-96 219,-96 219,-102 213,-108 207,-108"/>
<text text-anchor="middle" x="171" y="-87.5" font-family="sans" font-size="10.00" fill="#000000">plot_diagnostics</text>
</g>
<!-- 1&#45;&gt;0 -->
<g id="edge4" class="edge">
<title>1&#45;&gt;0</title>
<path fill="none" stroke="#c0c0c0" stroke-width="2" d="M219.2109,-81.3866C300.4563,-66.8713 462.9547,-37.8394 536.411,-24.7157"/>
<polygon fill="#c0c0c0" stroke="#c0c0c0" stroke-width="2" points="537.3539,-28.1027 546.5824,-22.8984 536.1227,-21.2118 537.3539,-28.1027"/>
</g>
<!-- 2 -->
<g id="node3" class="node">
<title>2</title>
<path fill="none" stroke="#567bd8" stroke-width="2" d="M325,-468C325,-468 295,-468 295,-468 289,-468 283,-462 283,-456 283,-456 283,-444 283,-444 283,-438 289,-432 295,-432 295,-432 325,-432 325,-432 331,-432 337,-438 337,-444 337,-444 337,-456 337,-456 337,-462 331,-468 325,-468"/>
<text text-anchor="middle" x="310" y="-447.5" font-family="sans" font-size="10.00" fill="#000000">split</text>
</g>
<!-- 2&#45;&gt;1 -->
<g id="edge10" class="edge">
<title>2&#45;&gt;1</title>
<path fill="none" stroke="#c0c0c0" stroke-width="2" d="M282.7613,-443.5588C207.1155,-424.8849 0,-368.0871 0,-306 0,-306 0,-306 0,-234 0,-173.2912 63.8403,-133.0097 113.5066,-110.8576"/>
<polygon fill="#c0c0c0" stroke="#c0c0c0" stroke-width="2" points="115.1165,-113.9749 122.9119,-106.7998 112.3435,-107.5476 115.1165,-113.9749"/>
</g>
<!-- 3 -->
<g id="node4" class="node">
<title>3</title>
<path fill="none" stroke="#c6d856" stroke-width="2" d="M239.5,-396C239.5,-396 178.5,-396 178.5,-396 172.5,-396 166.5,-390 166.5,-384 166.5,-384 166.5,-372 166.5,-372 166.5,-366 172.5,-360 178.5,-360 178.5,-360 239.5,-360 239.5,-360 245.5,-360 251.5,-366 251.5,-372 251.5,-372 251.5,-384 251.5,-384 251.5,-390 245.5,-396 239.5,-396"/>
<text text-anchor="middle" x="209" y="-375.5" font-family="sans" font-size="10.00" fill="#000000">filter_features</text>
</g>
<!-- 2&#45;&gt;3 -->
<g id="edge14" class="edge">
<title>2&#45;&gt;3</title>
<path fill="none" stroke="#c0c0c0" stroke-width="2" d="M284.5134,-431.8314C271.8341,-422.7927 256.3404,-411.7476 242.6945,-402.0198"/>
<polygon fill="#c0c0c0" stroke="#c0c0c0" stroke-width="2" points="244.6529,-399.1176 234.4784,-396.1628 240.5895,-404.8176 244.6529,-399.1176"/>
</g>
<!-- 5 -->
<g id="node6" class="node">
<title>5</title>
<path fill="none" stroke="#78d856" stroke-width="2" d="M361.5,-324C361.5,-324 320.5,-324 320.5,-324 314.5,-324 308.5,-318 308.5,-312 308.5,-312 308.5,-300 308.5,-300 308.5,-294 314.5,-288 320.5,-288 320.5,-288 361.5,-288 361.5,-288 367.5,-288 373.5,-294 373.5,-300 373.5,-300 373.5,-312 373.5,-312 373.5,-318 367.5,-324 361.5,-324"/>
<text text-anchor="middle" x="341" y="-303.5" font-family="sans" font-size="10.00" fill="#000000">norm_cqn</text>
</g>
<!-- 2&#45;&gt;5 -->
<g id="edge16" class="edge">
<title>2&#45;&gt;5</title>
<path fill="none" stroke="#c0c0c0" stroke-width="2" d="M313.9262,-431.7623C319.237,-407.0928 328.7594,-362.8598 334.978,-333.9731"/>
<polygon fill="#c0c0c0" stroke="#c0c0c0" stroke-width="2" points="338.4227,-334.6023 337.1057,-324.0896 331.5795,-333.129 338.4227,-334.6023"/>
</g>
<!-- 7 -->
<g id="node8" class="node">
<title>7</title>
<path fill="none" stroke="#9fd856" stroke-width="2" d="M304,-252C304,-252 230,-252 230,-252 224,-252 218,-246 218,-240 218,-240 218,-228 218,-228 218,-222 224,-216 230,-216 230,-216 304,-216 304,-216 310,-216 316,-222 316,-228 316,-228 316,-240 316,-240 316,-246 310,-252 304,-252"/>
<text text-anchor="middle" x="267" y="-231.5" font-family="sans" font-size="10.00" fill="#000000">integrate_limma</text>
</g>
<!-- 2&#45;&gt;7 -->
<g id="edge19" class="edge">
<title>2&#45;&gt;7</title>
<path fill="none" stroke="#c0c0c0" stroke-width="2" d="M306.4078,-431.9555C298.9144,-394.3144 281.5696,-307.1867 272.5989,-262.1246"/>
<polygon fill="#c0c0c0" stroke="#c0c0c0" stroke-width="2" points="275.9974,-261.2692 270.6122,-252.1451 269.1321,-262.636 275.9974,-261.2692"/>
</g>
<!-- 9 -->
<g id="node10" class="node">
<title>9</title>
<path fill="none" stroke="#56c9d8" stroke-width="2" d="M439,-108C439,-108 379,-108 379,-108 373,-108 367,-102 367,-96 367,-96 367,-84 367,-84 367,-78 373,-72 379,-72 379,-72 439,-72 439,-72 445,-72 451,-78 451,-84 451,-84 451,-96 451,-96 451,-102 445,-108 439,-108"/>
<text text-anchor="middle" x="409" y="-87.5" font-family="sans" font-size="10.00" fill="#000000">plot_heatmap</text>
</g>
<!-- 2&#45;&gt;9 -->
<g id="edge27" class="edge">
<title>2&#45;&gt;9</title>
<path fill="none" stroke="#c0c0c0" stroke-width="2" d="M337.384,-443.4135C390.8602,-428.739 504,-388.0024 504,-306 504,-306 504,-306 504,-234 504,-186.0912 466.9087,-141.8312 439.079,-115.3654"/>
<polygon fill="#c0c0c0" stroke="#c0c0c0" stroke-width="2" points="441.2364,-112.5938 431.5137,-108.3843 436.4892,-117.7382 441.2364,-112.5938"/>
</g>
<!-- 10 -->
<g id="node11" class="node">
<title>10</title>
<path fill="none" stroke="#56d8a2" stroke-width="2" d="M576,-252C576,-252 544,-252 544,-252 538,-252 532,-246 532,-240 532,-240 532,-228 532,-228 532,-222 538,-216 544,-216 544,-216 576,-216 576,-216 582,-216 588,-222 588,-228 588,-228 588,-240 588,-240 588,-246 582,-252 576,-252"/>
<text text-anchor="middle" x="560" y="-231.5" font-family="sans" font-size="10.00" fill="#000000">plot_cfa</text>
</g>
<!-- 2&#45;&gt;10 -->
<g id="edge31" class="edge">
<title>2&#45;&gt;10</title>
<path fill="none" stroke="#c0c0c0" stroke-width="2" d="M337.3581,-446.3685C387.7953,-439.1321 492.6126,-421.3958 518,-396 553.649,-360.3391 560.2659,-298.5778 560.8301,-262.4927"/>
<polygon fill="#c0c0c0" stroke="#c0c0c0" stroke-width="2" points="564.3302,-262.1777 560.8363,-252.1755 557.3302,-262.1734 564.3302,-262.1777"/>
</g>
<!-- 3&#45;&gt;1 -->
<g id="edge7" class="edge">
<title>3&#45;&gt;1</title>
<path fill="none" stroke="#c0c0c0" stroke-width="2" d="M166.2715,-367.4708C128.8542,-357.2837 78.679,-340.9362 67,-324 37.7089,-281.5236 49.635,-238.5546 110,-144 117.0263,-132.9941 126.918,-122.9035 136.6946,-114.4993"/>
<polygon fill="#c0c0c0" stroke="#c0c0c0" stroke-width="2" points="138.9412,-117.1834 144.4537,-108.1356 134.5021,-111.771 138.9412,-117.1834"/>
</g>
<!-- 4 -->
<g id="node5" class="node">
<title>4</title>
<path fill="none" stroke="#59d856" stroke-width="2" d="M236,-324C236,-324 182,-324 182,-324 176,-324 170,-318 170,-312 170,-312 170,-300 170,-300 170,-294 176,-288 182,-288 182,-288 236,-288 236,-288 242,-288 248,-294 248,-300 248,-300 248,-312 248,-312 248,-318 242,-324 236,-324"/>
<text text-anchor="middle" x="209" y="-303.5" font-family="sans" font-size="10.00" fill="#000000">norm_edgeR</text>
</g>
<!-- 3&#45;&gt;4 -->
<g id="edge15" class="edge">
<title>3&#45;&gt;4</title>
<path fill="none" stroke="#c0c0c0" stroke-width="2" d="M209,-359.8314C209,-352.131 209,-342.9743 209,-334.4166"/>
<polygon fill="#c0c0c0" stroke="#c0c0c0" stroke-width="2" points="212.5001,-334.4132 209,-324.4133 205.5001,-334.4133 212.5001,-334.4132"/>
</g>
<!-- 3&#45;&gt;5 -->
<g id="edge17" class="edge">
<title>3&#45;&gt;5</title>
<path fill="none" stroke="#c0c0c0" stroke-width="2" d="M242.3092,-359.8314C259.558,-350.4229 280.7921,-338.8407 299.1396,-328.8329"/>
<polygon fill="#c0c0c0" stroke="#c0c0c0" stroke-width="2" points="301.0558,-331.7746 308.1587,-323.9134 297.7038,-325.6293 301.0558,-331.7746"/>
</g>
<!-- 6 -->
<g id="node7" class="node">
<title>6</title>
<path fill="none" stroke="#56d87b" stroke-width="2" d="M139.5,-324C139.5,-324 88.5,-324 88.5,-324 82.5,-324 76.5,-318 76.5,-312 76.5,-312 76.5,-300 76.5,-300 76.5,-294 82.5,-288 88.5,-288 88.5,-288 139.5,-288 139.5,-288 145.5,-288 151.5,-294 151.5,-300 151.5,-300 151.5,-312 151.5,-312 151.5,-318 145.5,-324 139.5,-324"/>
<text text-anchor="middle" x="114" y="-303.5" font-family="sans" font-size="10.00" fill="#000000">norm_voom</text>
</g>
<!-- 3&#45;&gt;6 -->
<g id="edge18" class="edge">
<title>3&#45;&gt;6</title>
<path fill="none" stroke="#c0c0c0" stroke-width="2" d="M185.0275,-359.8314C173.2139,-350.8779 158.8028,-339.9558 146.0565,-330.2955"/>
<polygon fill="#c0c0c0" stroke="#c0c0c0" stroke-width="2" points="148.0486,-327.4137 137.9648,-324.1628 143.8205,-332.9925 148.0486,-327.4137"/>
</g>
<!-- 3&#45;&gt;9 -->
<g id="edge24" class="edge">
<title>3&#45;&gt;9</title>
<path fill="none" stroke="#c0c0c0" stroke-width="2" d="M251.5582,-369.7983C296.8304,-360.2224 364.3244,-343.2242 382,-324 434.3471,-267.0666 424.0859,-166.5437 415.1522,-117.9083"/>
<polygon fill="#c0c0c0" stroke="#c0c0c0" stroke-width="2" points="418.5843,-117.2218 413.2324,-108.0782 411.7141,-118.5637 418.5843,-117.2218"/>
</g>
<!-- 4&#45;&gt;1 -->
<g id="edge11" class="edge">
<title>4&#45;&gt;1</title>
<path fill="none" stroke="#c0c0c0" stroke-width="2" d="M194.4881,-287.6615C187.5033,-277.7117 179.8291,-264.8456 176,-252 162.5674,-206.9376 164.5411,-151.6762 167.5313,-118.7326"/>
<polygon fill="#c0c0c0" stroke="#c0c0c0" stroke-width="2" points="171.0458,-118.7629 168.5635,-108.463 164.0809,-118.0628 171.0458,-118.7629"/>
</g>
<!-- 4&#45;&gt;7 -->
<g id="edge20" class="edge">
<title>4&#45;&gt;7</title>
<path fill="none" stroke="#c0c0c0" stroke-width="2" d="M223.6358,-287.8314C230.3161,-279.5386 238.3568,-269.557 245.6904,-260.4533"/>
<polygon fill="#c0c0c0" stroke="#c0c0c0" stroke-width="2" points="248.6194,-262.3965 252.1671,-252.4133 243.1681,-258.0052 248.6194,-262.3965"/>
</g>
<!-- 4&#45;&gt;9 -->
<g id="edge28" class="edge">
<title>4&#45;&gt;9</title>
<path fill="none" stroke="#c0c0c0" stroke-width="2" d="M204.9545,-287.9133C201.655,-269.1169 198.9983,-239.2527 209,-216 234.9955,-155.564 306.8636,-121.4093 356.9574,-104.3203"/>
<polygon fill="#c0c0c0" stroke="#c0c0c0" stroke-width="2" points="358.2599,-107.5764 366.6658,-101.1273 356.0729,-100.9268 358.2599,-107.5764"/>
</g>
<!-- 5&#45;&gt;1 -->
<g id="edge13" class="edge">
<title>5&#45;&gt;1</title>
<path fill="none" stroke="#c0c0c0" stroke-width="2" d="M341.3814,-287.831C340.9961,-268.6985 338.0884,-238.3126 325,-216 321.0489,-209.2643 245.8286,-149.1666 202.0035,-114.4607"/>
<polygon fill="#c0c0c0" stroke="#c0c0c0" stroke-width="2" points="203.9627,-111.5479 193.9487,-108.088 199.6194,-117.0375 203.9627,-111.5479"/>
</g>
<!-- 5&#45;&gt;7 -->
<g id="edge22" class="edge">
<title>5&#45;&gt;7</title>
<path fill="none" stroke="#c0c0c0" stroke-width="2" d="M322.3267,-287.8314C313.4751,-279.219 302.7514,-268.7851 293.1105,-259.4048"/>
<polygon fill="#c0c0c0" stroke="#c0c0c0" stroke-width="2" points="295.2754,-256.6279 285.6674,-252.1628 290.3939,-261.645 295.2754,-256.6279"/>
</g>
<!-- 5&#45;&gt;9 -->
<g id="edge30" class="edge">
<title>5&#45;&gt;9</title>
<path fill="none" stroke="#c0c0c0" stroke-width="2" d="M350.8118,-287.793C363.3023,-263.7965 384.622,-219.9417 396,-180 401.7579,-159.7875 405.0428,-136.2589 406.8697,-118.329"/>
<polygon fill="#c0c0c0" stroke="#c0c0c0" stroke-width="2" points="410.368,-118.5084 407.8062,-108.2279 403.3979,-117.8621 410.368,-118.5084"/>
</g>
<!-- 6&#45;&gt;1 -->
<g id="edge9" class="edge">
<title>6&#45;&gt;1</title>
<path fill="none" stroke="#c0c0c0" stroke-width="2" d="M106.8617,-287.8478C100.6534,-269.5106 93.5796,-240.4725 100,-216 109.7608,-178.7954 133.263,-140.9997 150.5661,-116.6422"/>
<polygon fill="#c0c0c0" stroke="#c0c0c0" stroke-width="2" points="153.5787,-118.4502 156.6236,-108.3023 147.915,-114.3365 153.5787,-118.4502"/>
</g>
<!-- 6&#45;&gt;7 -->
<g id="edge21" class="edge">
<title>6&#45;&gt;7</title>
<path fill="none" stroke="#c0c0c0" stroke-width="2" d="M151.8202,-288.2022C172.2618,-278.5827 197.7036,-266.6101 219.4727,-256.3658"/>
<polygon fill="#c0c0c0" stroke="#c0c0c0" stroke-width="2" points="220.9942,-259.518 228.5521,-252.0931 218.0136,-253.1843 220.9942,-259.518"/>
</g>
<!-- 6&#45;&gt;9 -->
<g id="edge26" class="edge">
<title>6&#45;&gt;9</title>
<path fill="none" stroke="#c0c0c0" stroke-width="2" d="M121.9983,-287.9352C137.7456,-254.4521 175.9911,-182.6543 230,-144 267.5182,-117.1481 318.5551,-103.4671 356.5331,-96.6091"/>
<polygon fill="#c0c0c0" stroke="#c0c0c0" stroke-width="2" points="357.6047,-99.9772 366.8765,-94.8504 356.4313,-93.0763 357.6047,-99.9772"/>
</g>
<!-- 7&#45;&gt;1 -->
<g id="edge8" class="edge">
<title>7&#45;&gt;1</title>
<path fill="none" stroke="#c0c0c0" stroke-width="2" d="M254.8415,-215.7623C238.1067,-190.66 207.8678,-145.3017 188.6447,-116.4671"/>
<polygon fill="#c0c0c0" stroke="#c0c0c0" stroke-width="2" points="191.519,-114.4687 183.0597,-108.0896 185.6946,-118.3516 191.519,-114.4687"/>
</g>
<!-- 8 -->
<g id="node9" class="node">
<title>8</title>
<path fill="none" stroke="#56a2d8" stroke-width="2" d="M349.5,-180C349.5,-180 306.5,-180 306.5,-180 300.5,-180 294.5,-174 294.5,-168 294.5,-168 294.5,-156 294.5,-156 294.5,-150 300.5,-144 306.5,-144 306.5,-144 349.5,-144 349.5,-144 355.5,-144 361.5,-150 361.5,-156 361.5,-156 361.5,-168 361.5,-168 361.5,-174 355.5,-180 349.5,-180"/>
<text text-anchor="middle" x="328" y="-159.5" font-family="sans" font-size="10.00" fill="#000000">select_hvf</text>
</g>
<!-- 7&#45;&gt;8 -->
<g id="edge23" class="edge">
<title>7&#45;&gt;8</title>
<path fill="none" stroke="#c0c0c0" stroke-width="2" d="M282.3929,-215.8314C289.4904,-207.454 298.048,-197.3531 305.824,-188.1749"/>
<polygon fill="#c0c0c0" stroke="#c0c0c0" stroke-width="2" points="308.6061,-190.3056 312.3999,-180.4133 303.2652,-185.7807 308.6061,-190.3056"/>
</g>
<!-- 7&#45;&gt;9 -->
<g id="edge25" class="edge">
<title>7&#45;&gt;9</title>
<path fill="none" stroke="#c0c0c0" stroke-width="2" d="M316.1199,-216.5034C334.8934,-207.8615 355.2991,-195.8306 370,-180 386.2071,-162.5475 396.346,-137.301 402.2098,-117.9864"/>
<polygon fill="#c0c0c0" stroke="#c0c0c0" stroke-width="2" points="405.6163,-118.8019 404.9674,-108.2269 398.8801,-116.8984 405.6163,-118.8019"/>
</g>
<!-- 8&#45;&gt;1 -->
<g id="edge12" class="edge">
<title>8&#45;&gt;1</title>
<path fill="none" stroke="#c0c0c0" stroke-width="2" d="M294.3196,-146.5542C272.6045,-136.5957 244.0082,-123.4814 219.8204,-112.389"/>
<polygon fill="#c0c0c0" stroke="#c0c0c0" stroke-width="2" points="220.9963,-109.0778 210.4475,-108.0906 218.0782,-115.4406 220.9963,-109.0778"/>
</g>
<!-- 8&#45;&gt;9 -->
<g id="edge29" class="edge">
<title>8&#45;&gt;9</title>
<path fill="none" stroke="#c0c0c0" stroke-width="2" d="M348.4397,-143.8314C358.3205,-135.0485 370.3324,-124.3712 381.045,-114.8489"/>
<polygon fill="#c0c0c0" stroke="#c0c0c0" stroke-width="2" points="383.418,-117.4224 388.5668,-108.1628 378.7674,-112.1906 383.418,-117.4224"/>
</g>
<!-- 9&#45;&gt;0 -->
<g id="edge6" class="edge">
<title>9&#45;&gt;0</title>
<path fill="none" stroke="#c0c0c0" stroke-width="2" d="M450.6365,-71.8314C477.387,-60.1584 511.8061,-45.1391 537.4882,-33.9324"/>
<polygon fill="#c0c0c0" stroke="#c0c0c0" stroke-width="2" points="539.1036,-37.0463 546.8691,-29.8389 536.3039,-30.6305 539.1036,-37.0463"/>
</g>
<!-- 10&#45;&gt;0 -->
<g id="edge5" class="edge">
<title>10&#45;&gt;0</title>
<path fill="none" stroke="#c0c0c0" stroke-width="2" d="M558.7646,-215.9347C557.0129,-185.9177 554.6746,-123.9297 561,-72 562.0329,-63.5197 563.9079,-54.4417 565.9183,-46.1953"/>
<polygon fill="#c0c0c0" stroke="#c0c0c0" stroke-width="2" points="569.3615,-46.8607 568.4842,-36.3022 562.5857,-45.1033 569.3615,-46.8607"/>
</g>
<!-- 11 -->
<g id="node12" class="node">
<title>11</title>
<path fill="none" stroke="#d8c356" stroke-width="2" d="M629.5,-108C629.5,-108 582.5,-108 582.5,-108 576.5,-108 570.5,-102 570.5,-96 570.5,-96 570.5,-84 570.5,-84 570.5,-78 576.5,-72 582.5,-72 582.5,-72 629.5,-72 629.5,-72 635.5,-72 641.5,-78 641.5,-84 641.5,-84 641.5,-96 641.5,-96 641.5,-102 635.5,-108 629.5,-108"/>
<text text-anchor="middle" x="606" y="-87.5" font-family="sans" font-size="10.00" fill="#000000">env_export</text>
</g>
<!-- 11&#45;&gt;0 -->
<g id="edge2" class="edge">
<title>11&#45;&gt;0</title>
<path fill="none" stroke="#c0c0c0" stroke-width="2" d="M597.925,-71.8314C594.3898,-63.8771 590.164,-54.369 586.2544,-45.5723"/>
<polygon fill="#c0c0c0" stroke="#c0c0c0" stroke-width="2" points="589.4435,-44.1299 582.1837,-36.4133 583.0468,-46.9729 589.4435,-44.1299"/>
</g>
<!-- 12 -->
<g id="node13" class="node">
<title>12</title>
<path fill="none" stroke="#d8a456" stroke-width="2" d="M730.5,-108C730.5,-108 671.5,-108 671.5,-108 665.5,-108 659.5,-102 659.5,-96 659.5,-96 659.5,-84 659.5,-84 659.5,-78 665.5,-72 671.5,-72 671.5,-72 730.5,-72 730.5,-72 736.5,-72 742.5,-78 742.5,-84 742.5,-84 742.5,-96 742.5,-96 742.5,-102 736.5,-108 730.5,-108"/>
<text text-anchor="middle" x="701" y="-87.5" font-family="sans" font-size="10.00" fill="#000000">config_export</text>
</g>
<!-- 12&#45;&gt;0 -->
<g id="edge1" class="edge">
<title>12&#45;&gt;0</title>
<path fill="none" stroke="#c0c0c0" stroke-width="2" d="M668.9525,-71.8314C651.0184,-61.664 628.6062,-48.9578 610.0604,-38.4437"/>
<polygon fill="#c0c0c0" stroke="#c0c0c0" stroke-width="2" points="611.7286,-35.3661 601.3032,-33.479 608.2763,-41.4556 611.7286,-35.3661"/>
</g>
<!-- 13 -->
<g id="node14" class="node">
<title>13</title>
<path fill="none" stroke="#d87d56" stroke-width="2" d="M829.5,-108C829.5,-108 772.5,-108 772.5,-108 766.5,-108 760.5,-102 760.5,-96 760.5,-96 760.5,-84 760.5,-84 760.5,-78 766.5,-72 772.5,-72 772.5,-72 829.5,-72 829.5,-72 835.5,-72 841.5,-78 841.5,-84 841.5,-84 841.5,-96 841.5,-96 841.5,-102 835.5,-108 829.5,-108"/>
<text text-anchor="middle" x="801" y="-87.5" font-family="sans" font-size="10.00" fill="#000000">annot_export</text>
</g>
<!-- 13&#45;&gt;0 -->
<g id="edge3" class="edge">
<title>13&#45;&gt;0</title>
<path fill="none" stroke="#c0c0c0" stroke-width="2" d="M760.4215,-74.8896C757.5778,-73.8936 754.7498,-72.9213 752,-72 703.5789,-55.7765 647.06,-38.9914 610.923,-28.5288"/>
<polygon fill="#c0c0c0" stroke="#c0c0c0" stroke-width="2" points="611.873,-25.1602 601.2946,-25.7512 609.9327,-31.8859 611.873,-25.1602"/>
</g>
</g>
</svg>
