<?xml version="1.0" encoding="UTF-8" standalone="no"?>
<!DOCTYPE svg PUBLIC "-//W3C//DTD SVG 1.1//EN"
 "http://www.w3.org/Graphics/SVG/1.1/DTD/svg11.dtd">
<!-- Generated by graphviz version 2.40.1 (0)
 -->
<!-- Title: snakemake_dag Pages: 1 -->
<svg width="417pt" height="476pt"
 viewBox="0.00 0.00 416.50 476.00" xmlns="http://www.w3.org/2000/svg" xmlns:xlink="http://www.w3.org/1999/xlink">
<g id="graph0" class="graph" transform="scale(1 1) rotate(0) translate(4 472)">
<title>snakemake_dag</title>
<polygon fill="#ffffff" stroke="transparent" points="-4,4 -4,-472 412.5,-472 412.5,4 -4,4"/>
<!-- 0 -->
<g id="node1" class="node">
<title>0</title>
<path fill="none" stroke="#70d856" stroke-width="2" d="M287,-36C287,-36 257,-36 257,-36 251,-36 245,-30 245,-24 245,-24 245,-12 245,-12 245,-6 251,0 257,0 257,0 287,0 287,0 293,0 299,-6 299,-12 299,-12 299,-24 299,-24 299,-30 293,-36 287,-36"/>
<text text-anchor="middle" x="272" y="-15.5" font-family="sans" font-size="10.00" fill="#000000">all</text>
</g>
<!-- 1 -->
<g id="node2" class="node">
<title>1</title>
<path fill="none" stroke="#d8b456" stroke-width="2" d="M206,-108C206,-108 134,-108 134,-108 128,-108 122,-102 122,-96 122,-96 122,-84 122,-84 122,-78 128,-72 134,-72 134,-72 206,-72 206,-72 212,-72 218,-78 218,-84 218,-84 218,-96 218,-96 218,-102 212,-108 206,-108"/>
<text text-anchor="middle" x="170" y="-87.5" font-family="sans" font-size="10.00" fill="#000000">plot_diagnostics</text>
</g>
<!-- 1&#45;&gt;0 -->
<g id="edge3" class="edge">
<title>1&#45;&gt;0</title>
<path fill="none" stroke="#c0c0c0" stroke-width="2" d="M195.7389,-71.8314C208.5437,-62.7927 224.1909,-51.7476 237.9719,-42.0198"/>
<polygon fill="#c0c0c0" stroke="#c0c0c0" stroke-width="2" points="240.118,-44.7891 246.2693,-36.1628 236.0812,-39.0703 240.118,-44.7891"/>
</g>
<!-- 2 -->
<g id="node3" class="node">
<title>2</title>
<path fill="none" stroke="#56d89a" stroke-width="2" d="M216,-468C216,-468 186,-468 186,-468 180,-468 174,-462 174,-456 174,-456 174,-444 174,-444 174,-438 180,-432 186,-432 186,-432 216,-432 216,-432 222,-432 228,-438 228,-444 228,-444 228,-456 228,-456 228,-462 222,-468 216,-468"/>
<text text-anchor="middle" x="201" y="-447.5" font-family="sans" font-size="10.00" fill="#000000">split</text>
</g>
<!-- 2&#45;&gt;1 -->
<g id="edge7" class="edge">
<title>2&#45;&gt;1</title>
<path fill="none" stroke="#c0c0c0" stroke-width="2" d="M173.8922,-444.0549C119.0278,-430.2533 0,-390.566 0,-306 0,-306 0,-306 0,-234 0,-173.6803 63.0863,-133.4135 112.3976,-111.1524"/>
<polygon fill="#c0c0c0" stroke="#c0c0c0" stroke-width="2" points="113.9764,-114.2822 121.7395,-107.0721 111.1746,-107.8673 113.9764,-114.2822"/>
</g>
<!-- 3 -->
<g id="node4" class="node">
<title>3</title>
<path fill="none" stroke="#56b1d8" stroke-width="2" d="M186.5,-396C186.5,-396 125.5,-396 125.5,-396 119.5,-396 113.5,-390 113.5,-384 113.5,-384 113.5,-372 113.5,-372 113.5,-366 119.5,-360 125.5,-360 125.5,-360 186.5,-360 186.5,-360 192.5,-360 198.5,-366 198.5,-372 198.5,-372 198.5,-384 198.5,-384 198.5,-390 192.5,-396 186.5,-396"/>
<text text-anchor="middle" x="156" y="-375.5" font-family="sans" font-size="10.00" fill="#000000">filter_features</text>
</g>
<!-- 2&#45;&gt;3 -->
<g id="edge11" class="edge">
<title>2&#45;&gt;3</title>
<path fill="none" stroke="#c0c0c0" stroke-width="2" d="M189.6446,-431.8314C184.5674,-423.7079 178.4773,-413.9637 172.8824,-405.0118"/>
<polygon fill="#c0c0c0" stroke="#c0c0c0" stroke-width="2" points="175.7763,-403.0383 167.5083,-396.4133 169.8403,-406.7483 175.7763,-403.0383"/>
</g>
<!-- 5 -->
<g id="node6" class="node">
<title>5</title>
<path fill="none" stroke="#ced856" stroke-width="2" d="M266.5,-324C266.5,-324 225.5,-324 225.5,-324 219.5,-324 213.5,-318 213.5,-312 213.5,-312 213.5,-300 213.5,-300 213.5,-294 219.5,-288 225.5,-288 225.5,-288 266.5,-288 266.5,-288 272.5,-288 278.5,-294 278.5,-300 278.5,-300 278.5,-312 278.5,-312 278.5,-318 272.5,-324 266.5,-324"/>
<text text-anchor="middle" x="246" y="-303.5" font-family="sans" font-size="10.00" fill="#000000">norm_cqn</text>
</g>
<!-- 2&#45;&gt;5 -->
<g id="edge14" class="edge">
<title>2&#45;&gt;5</title>
<path fill="none" stroke="#c0c0c0" stroke-width="2" d="M206.6993,-431.7623C214.4085,-407.0928 228.2313,-362.8598 237.2584,-333.9731"/>
<polygon fill="#c0c0c0" stroke="#c0c0c0" stroke-width="2" points="240.7049,-334.6784 240.347,-324.0896 234.0235,-332.5904 240.7049,-334.6784"/>
</g>
<!-- 7 -->
<g id="node8" class="node">
<title>7</title>
<path fill="none" stroke="#d85656" stroke-width="2" d="M337.5,-252C337.5,-252 248.5,-252 248.5,-252 242.5,-252 236.5,-246 236.5,-240 236.5,-240 236.5,-228 236.5,-228 236.5,-222 242.5,-216 248.5,-216 248.5,-216 337.5,-216 337.5,-216 343.5,-216 349.5,-222 349.5,-228 349.5,-228 349.5,-240 349.5,-240 349.5,-246 343.5,-252 337.5,-252"/>
<text text-anchor="middle" x="293" y="-231.5" font-family="sans" font-size="10.00" fill="#000000">integrate_recombat</text>
</g>
<!-- 2&#45;&gt;7 -->
<g id="edge18" class="edge">
<title>2&#45;&gt;7</title>
<path fill="none" stroke="#c0c0c0" stroke-width="2" d="M218.2642,-431.7122C238.8242,-408.6506 272.2362,-366.8147 287,-324 293.8384,-304.1687 295.1631,-280.4486 294.8718,-262.3396"/>
<polygon fill="#c0c0c0" stroke="#c0c0c0" stroke-width="2" points="298.363,-262.0135 294.53,-252.1363 291.3669,-262.2479 298.363,-262.0135"/>
</g>
<!-- 3&#45;&gt;1 -->
<g id="edge9" class="edge">
<title>3&#45;&gt;1</title>
<path fill="none" stroke="#c0c0c0" stroke-width="2" d="M131.4749,-359.9718C95.6206,-331.2301 35.3806,-272.4875 57,-216 73.0596,-174.0392 110.2481,-137.2528 137.596,-114.4292"/>
<polygon fill="#c0c0c0" stroke="#c0c0c0" stroke-width="2" points="139.8371,-117.1179 145.3772,-108.087 135.4145,-111.6919 139.8371,-117.1179"/>
</g>
<!-- 4 -->
<g id="node5" class="node">
<title>4</title>
<path fill="none" stroke="#5682d8" stroke-width="2" d="M183,-324C183,-324 129,-324 129,-324 123,-324 117,-318 117,-312 117,-312 117,-300 117,-300 117,-294 123,-288 129,-288 129,-288 183,-288 183,-288 189,-288 195,-294 195,-300 195,-300 195,-312 195,-312 195,-318 189,-324 183,-324"/>
<text text-anchor="middle" x="156" y="-303.5" font-family="sans" font-size="10.00" fill="#000000">norm_edgeR</text>
</g>
<!-- 3&#45;&gt;4 -->
<g id="edge12" class="edge">
<title>3&#45;&gt;4</title>
<path fill="none" stroke="#c0c0c0" stroke-width="2" d="M156,-359.8314C156,-352.131 156,-342.9743 156,-334.4166"/>
<polygon fill="#c0c0c0" stroke="#c0c0c0" stroke-width="2" points="159.5001,-334.4132 156,-324.4133 152.5001,-334.4133 159.5001,-334.4132"/>
</g>
<!-- 3&#45;&gt;5 -->
<g id="edge13" class="edge">
<title>3&#45;&gt;5</title>
<path fill="none" stroke="#c0c0c0" stroke-width="2" d="M178.7108,-359.8314C189.796,-350.9632 203.2954,-340.1637 215.2852,-330.5718"/>
<polygon fill="#c0c0c0" stroke="#c0c0c0" stroke-width="2" points="217.6742,-333.1429 223.2965,-324.1628 213.3013,-327.6768 217.6742,-333.1429"/>
</g>
<!-- 6 -->
<g id="node7" class="node">
<title>6</title>
<path fill="none" stroke="#d88556" stroke-width="2" d="M129.5,-252C129.5,-252 78.5,-252 78.5,-252 72.5,-252 66.5,-246 66.5,-240 66.5,-240 66.5,-228 66.5,-228 66.5,-222 72.5,-216 78.5,-216 78.5,-216 129.5,-216 129.5,-216 135.5,-216 141.5,-222 141.5,-228 141.5,-228 141.5,-240 141.5,-240 141.5,-246 135.5,-252 129.5,-252"/>
<text text-anchor="middle" x="104" y="-231.5" font-family="sans" font-size="10.00" fill="#000000">norm_voom</text>
</g>
<!-- 3&#45;&gt;6 -->
<g id="edge15" class="edge">
<title>3&#45;&gt;6</title>
<path fill="none" stroke="#c0c0c0" stroke-width="2" d="M134.0454,-359.7984C124.199,-350.2592 113.566,-337.7147 108,-324 100.0842,-304.4953 99.386,-280.6239 100.5042,-262.3681"/>
<polygon fill="#c0c0c0" stroke="#c0c0c0" stroke-width="2" points="103.997,-262.5978 101.3316,-252.3437 97.0208,-262.0219 103.997,-262.5978"/>
</g>
<!-- 4&#45;&gt;1 -->
<g id="edge10" class="edge">
<title>4&#45;&gt;1</title>
<path fill="none" stroke="#c0c0c0" stroke-width="2" d="M157.1696,-287.9555C159.6093,-250.3144 165.2564,-163.1867 168.1771,-118.1246"/>
<polygon fill="#c0c0c0" stroke="#c0c0c0" stroke-width="2" points="171.6697,-118.3505 168.8239,-108.1451 164.6844,-117.8977 171.6697,-118.3505"/>
</g>
<!-- 4&#45;&gt;7 -->
<g id="edge17" class="edge">
<title>4&#45;&gt;7</title>
<path fill="none" stroke="#c0c0c0" stroke-width="2" d="M190.5709,-287.8314C208.4185,-278.4516 230.3774,-266.9112 249.38,-256.9244"/>
<polygon fill="#c0c0c0" stroke="#c0c0c0" stroke-width="2" points="251.2164,-259.9132 258.4402,-252.1628 247.9599,-253.7168 251.2164,-259.9132"/>
</g>
<!-- 5&#45;&gt;1 -->
<g id="edge6" class="edge">
<title>5&#45;&gt;1</title>
<path fill="none" stroke="#c0c0c0" stroke-width="2" d="M239.651,-287.9555C226.379,-250.235 195.6214,-162.8188 179.7955,-117.8399"/>
<polygon fill="#c0c0c0" stroke="#c0c0c0" stroke-width="2" points="183.0051,-116.4165 176.3844,-108.1451 176.4019,-118.7399 183.0051,-116.4165"/>
</g>
<!-- 5&#45;&gt;7 -->
<g id="edge16" class="edge">
<title>5&#45;&gt;7</title>
<path fill="none" stroke="#c0c0c0" stroke-width="2" d="M257.8601,-287.8314C263.1629,-279.7079 269.5237,-269.9637 275.3673,-261.0118"/>
<polygon fill="#c0c0c0" stroke="#c0c0c0" stroke-width="2" points="278.4448,-262.7003 280.9802,-252.4133 272.5831,-258.8739 278.4448,-262.7003"/>
</g>
<!-- 6&#45;&gt;1 -->
<g id="edge5" class="edge">
<title>6&#45;&gt;1</title>
<path fill="none" stroke="#c0c0c0" stroke-width="2" d="M112.3589,-215.7623C123.765,-190.8764 144.2956,-146.0822 157.5258,-117.2165"/>
<polygon fill="#c0c0c0" stroke="#c0c0c0" stroke-width="2" points="160.7241,-118.6386 161.7089,-108.0896 154.3606,-115.722 160.7241,-118.6386"/>
</g>
<!-- 7&#45;&gt;1 -->
<g id="edge4" class="edge">
<title>7&#45;&gt;1</title>
<path fill="none" stroke="#c0c0c0" stroke-width="2" d="M304.3584,-215.8374C314.8886,-196.4326 326.8678,-165.5605 312,-144 306.7598,-136.4009 264.7883,-120.9651 227.8246,-108.5358"/>
<polygon fill="#c0c0c0" stroke="#c0c0c0" stroke-width="2" points="228.6586,-105.1245 218.0649,-105.2834 226.4455,-111.7655 228.6586,-105.1245"/>
</g>
<!-- 8 -->
<g id="node9" class="node">
<title>8</title>
<path fill="none" stroke="#56d86b" stroke-width="2" d="M291.5,-180C291.5,-180 248.5,-180 248.5,-180 242.5,-180 236.5,-174 236.5,-168 236.5,-168 236.5,-156 236.5,-156 236.5,-150 242.5,-144 248.5,-144 248.5,-144 291.5,-144 291.5,-144 297.5,-144 303.5,-150 303.5,-156 303.5,-156 303.5,-168 303.5,-168 303.5,-174 297.5,-180 291.5,-180"/>
<text text-anchor="middle" x="270" y="-159.5" font-family="sans" font-size="10.00" fill="#000000">select_hvf</text>
</g>
<!-- 7&#45;&gt;8 -->
<g id="edge19" class="edge">
<title>7&#45;&gt;8</title>
<path fill="none" stroke="#c0c0c0" stroke-width="2" d="M287.1961,-215.8314C284.7092,-208.0463 281.7469,-198.7729 278.9875,-190.1347"/>
<polygon fill="#c0c0c0" stroke="#c0c0c0" stroke-width="2" points="282.2591,-188.874 275.882,-180.4133 275.591,-191.0041 282.2591,-188.874"/>
</g>
<!-- 8&#45;&gt;1 -->
<g id="edge8" class="edge">
<title>8&#45;&gt;1</title>
<path fill="none" stroke="#c0c0c0" stroke-width="2" d="M244.7658,-143.8314C232.212,-134.7927 216.8717,-123.7476 203.3609,-114.0198"/>
<polygon fill="#c0c0c0" stroke="#c0c0c0" stroke-width="2" points="205.3866,-111.1655 195.2261,-108.1628 201.2964,-116.8463 205.3866,-111.1655"/>
</g>
<!-- 9 -->
<g id="node10" class="node">
<title>9</title>
<path fill="none" stroke="#9fd856" stroke-width="2" d="M295.5,-108C295.5,-108 248.5,-108 248.5,-108 242.5,-108 236.5,-102 236.5,-96 236.5,-96 236.5,-84 236.5,-84 236.5,-78 242.5,-72 248.5,-72 248.5,-72 295.5,-72 295.5,-72 301.5,-72 307.5,-78 307.5,-84 307.5,-84 307.5,-96 307.5,-96 307.5,-102 301.5,-108 295.5,-108"/>
<text text-anchor="middle" x="272" y="-87.5" font-family="sans" font-size="10.00" fill="#000000">env_export</text>
</g>
<!-- 9&#45;&gt;0 -->
<g id="edge2" class="edge">
<title>9&#45;&gt;0</title>
<path fill="none" stroke="#c0c0c0" stroke-width="2" d="M272,-71.8314C272,-64.131 272,-54.9743 272,-46.4166"/>
<polygon fill="#c0c0c0" stroke="#c0c0c0" stroke-width="2" points="275.5001,-46.4132 272,-36.4133 268.5001,-46.4133 275.5001,-46.4132"/>
</g>
<!-- 10 -->
<g id="node11" class="node">
<title>10</title>
<path fill="none" stroke="#56d8c9" stroke-width="2" d="M396.5,-108C396.5,-108 337.5,-108 337.5,-108 331.5,-108 325.5,-102 325.5,-96 325.5,-96 325.5,-84 325.5,-84 325.5,-78 331.5,-72 337.5,-72 337.5,-72 396.5,-72 396.5,-72 402.5,-72 408.5,-78 408.5,-84 408.5,-84 408.5,-96 408.5,-96 408.5,-102 402.5,-108 396.5,-108"/>
<text text-anchor="middle" x="367" y="-87.5" font-family="sans" font-size="10.00" fill="#000000">config_export</text>
</g>
<!-- 10&#45;&gt;0 -->
<g id="edge1" class="edge">
<title>10&#45;&gt;0</title>
<path fill="none" stroke="#c0c0c0" stroke-width="2" d="M343.0275,-71.8314C331.2139,-62.8779 316.8028,-51.9558 304.0565,-42.2955"/>
<polygon fill="#c0c0c0" stroke="#c0c0c0" stroke-width="2" points="306.0486,-39.4137 295.9648,-36.1628 301.8205,-44.9925 306.0486,-39.4137"/>
</g>
</g>
</svg>
