<?xml version="1.0" encoding="UTF-8" standalone="no"?>
<!DOCTYPE svg PUBLIC "-//W3C//DTD SVG 1.1//EN"
 "http://www.w3.org/Graphics/SVG/1.1/DTD/svg11.dtd">
<!-- Generated by graphviz version 2.40.1 (0)
 -->
<!-- Title: snakemake_dag Pages: 1 -->
<svg width="393pt" height="260pt"
 viewBox="0.00 0.00 392.56 260.00" xmlns="http://www.w3.org/2000/svg" xmlns:xlink="http://www.w3.org/1999/xlink">
<g id="graph0" class="graph" transform="scale(1 1) rotate(0) translate(4 256)">
<title>snakemake_dag</title>
<polygon fill="#ffffff" stroke="transparent" points="-4,4 -4,-256 388.5631,-256 388.5631,4 -4,4"/>
<!-- 0 -->
<g id="node1" class="node">
<title>0</title>
<path fill="none" stroke="#78d856" stroke-width="2" d="M132.0631,-36C132.0631,-36 102.0631,-36 102.0631,-36 96.0631,-36 90.0631,-30 90.0631,-24 90.0631,-24 90.0631,-12 90.0631,-12 90.0631,-6 96.0631,0 102.0631,0 102.0631,0 132.0631,0 132.0631,0 138.0631,0 144.0631,-6 144.0631,-12 144.0631,-12 144.0631,-24 144.0631,-24 144.0631,-30 138.0631,-36 132.0631,-36"/>
<text text-anchor="middle" x="117.0631" y="-15.5" font-family="sans" font-size="10.00" fill="#000000">all</text>
</g>
<!-- 1 -->
<g id="node2" class="node">
<title>1</title>
<path fill="none" stroke="#56d87b" stroke-width="2" d="M87.0631,-252C87.0631,-252 57.0631,-252 57.0631,-252 51.0631,-252 45.0631,-246 45.0631,-240 45.0631,-240 45.0631,-228 45.0631,-228 45.0631,-222 51.0631,-216 57.0631,-216 57.0631,-216 87.0631,-216 87.0631,-216 93.0631,-216 99.0631,-222 99.0631,-228 99.0631,-228 99.0631,-240 99.0631,-240 99.0631,-246 93.0631,-252 87.0631,-252"/>
<text text-anchor="middle" x="72.0631" y="-231.5" font-family="sans" font-size="10.00" fill="#000000">split</text>
</g>
<!-- 1&#45;&gt;0 -->
<g id="edge4" class="edge">
<title>1&#45;&gt;0</title>
<path fill="none" stroke="#c0c0c0" stroke-width="2" d="M48.1861,-215.8369C37.6364,-206.3923 26.2436,-193.917 20.0631,-180 .5604,-136.0844 -9.7221,-113.1659 15.0631,-72 29.1706,-48.5688 57.2329,-34.7723 80.3578,-26.9976"/>
<polygon fill="#c0c0c0" stroke="#c0c0c0" stroke-width="2" points="81.4033,-30.3379 89.911,-24.0237 79.3226,-23.6542 81.4033,-30.3379"/>
</g>
<!-- 2 -->
<g id="node3" class="node">
<title>2</title>
<path fill="none" stroke="#d85656" stroke-width="2" d="M102.5631,-180C102.5631,-180 41.5631,-180 41.5631,-180 35.5631,-180 29.5631,-174 29.5631,-168 29.5631,-168 29.5631,-156 29.5631,-156 29.5631,-150 35.5631,-144 41.5631,-144 41.5631,-144 102.5631,-144 102.5631,-144 108.5631,-144 114.5631,-150 114.5631,-156 114.5631,-156 114.5631,-168 114.5631,-168 114.5631,-174 108.5631,-180 102.5631,-180"/>
<text text-anchor="middle" x="72.0631" y="-159.5" font-family="sans" font-size="10.00" fill="#000000">filter_features</text>
</g>
<!-- 1&#45;&gt;2 -->
<g id="edge7" class="edge">
<title>1&#45;&gt;2</title>
<path fill="none" stroke="#c0c0c0" stroke-width="2" d="M72.0631,-215.8314C72.0631,-208.131 72.0631,-198.9743 72.0631,-190.4166"/>
<polygon fill="#c0c0c0" stroke="#c0c0c0" stroke-width="2" points="75.5632,-190.4132 72.0631,-180.4133 68.5632,-190.4133 75.5632,-190.4132"/>
</g>
<!-- 4 -->
<g id="node5" class="node">
<title>4</title>
<path fill="none" stroke="#56d8c9" stroke-width="2" d="M182.5631,-108C182.5631,-108 141.5631,-108 141.5631,-108 135.5631,-108 129.5631,-102 129.5631,-96 129.5631,-96 129.5631,-84 129.5631,-84 129.5631,-78 135.5631,-72 141.5631,-72 141.5631,-72 182.5631,-72 182.5631,-72 188.5631,-72 194.5631,-78 194.5631,-84 194.5631,-84 194.5631,-96 194.5631,-96 194.5631,-102 188.5631,-108 182.5631,-108"/>
<text text-anchor="middle" x="162.0631" y="-87.5" font-family="sans" font-size="10.00" fill="#000000">norm_cqn</text>
</g>
<!-- 1&#45;&gt;4 -->
<g id="edge9" class="edge">
<title>1&#45;&gt;4</title>
<path fill="none" stroke="#c0c0c0" stroke-width="2" d="M92.2371,-215.8991C102.4152,-206.0143 114.4038,-193.1346 123.0631,-180 135.875,-160.5668 146.1239,-136.2279 152.8942,-117.7622"/>
<polygon fill="#c0c0c0" stroke="#c0c0c0" stroke-width="2" points="156.2499,-118.7708 156.2917,-108.1761 149.6521,-116.4323 156.2499,-118.7708"/>
</g>
<!-- 2&#45;&gt;0 -->
<g id="edge1" class="edge">
<title>2&#45;&gt;0</title>
<path fill="none" stroke="#c0c0c0" stroke-width="2" d="M49.8419,-143.9032C39.9324,-134.3888 29.3232,-121.8349 24.0631,-108 18.377,-93.0445 16.0802,-85.8663 24.0631,-72 36.206,-50.9079 60.0961,-37.2946 80.6216,-29.0126"/>
<polygon fill="#c0c0c0" stroke="#c0c0c0" stroke-width="2" points="81.9277,-32.2609 90.0603,-25.4703 79.4681,-25.7072 81.9277,-32.2609"/>
</g>
<!-- 3 -->
<g id="node4" class="node">
<title>3</title>
<path fill="none" stroke="#c6d856" stroke-width="2" d="M99.0631,-108C99.0631,-108 45.0631,-108 45.0631,-108 39.0631,-108 33.0631,-102 33.0631,-96 33.0631,-96 33.0631,-84 33.0631,-84 33.0631,-78 39.0631,-72 45.0631,-72 45.0631,-72 99.0631,-72 99.0631,-72 105.0631,-72 111.0631,-78 111.0631,-84 111.0631,-84 111.0631,-96 111.0631,-96 111.0631,-102 105.0631,-108 99.0631,-108"/>
<text text-anchor="middle" x="72.0631" y="-87.5" font-family="sans" font-size="10.00" fill="#000000">norm_edgeR</text>
</g>
<!-- 2&#45;&gt;3 -->
<g id="edge8" class="edge">
<title>2&#45;&gt;3</title>
<path fill="none" stroke="#c0c0c0" stroke-width="2" d="M72.0631,-143.8314C72.0631,-136.131 72.0631,-126.9743 72.0631,-118.4166"/>
<polygon fill="#c0c0c0" stroke="#c0c0c0" stroke-width="2" points="75.5632,-118.4132 72.0631,-108.4133 68.5632,-118.4133 75.5632,-118.4132"/>
</g>
<!-- 2&#45;&gt;4 -->
<g id="edge10" class="edge">
<title>2&#45;&gt;4</title>
<path fill="none" stroke="#c0c0c0" stroke-width="2" d="M94.7739,-143.8314C105.8591,-134.9632 119.3585,-124.1637 131.3483,-114.5718"/>
<polygon fill="#c0c0c0" stroke="#c0c0c0" stroke-width="2" points="133.7373,-117.1429 139.3596,-108.1628 129.3644,-111.6768 133.7373,-117.1429"/>
</g>
<!-- 3&#45;&gt;0 -->
<g id="edge3" class="edge">
<title>3&#45;&gt;0</title>
<path fill="none" stroke="#c0c0c0" stroke-width="2" d="M83.4185,-71.8314C88.4957,-63.7079 94.5858,-53.9637 100.1808,-45.0118"/>
<polygon fill="#c0c0c0" stroke="#c0c0c0" stroke-width="2" points="103.2228,-46.7483 105.5548,-36.4133 97.2868,-43.0383 103.2228,-46.7483"/>
</g>
<!-- 4&#45;&gt;0 -->
<g id="edge5" class="edge">
<title>4&#45;&gt;0</title>
<path fill="none" stroke="#c0c0c0" stroke-width="2" d="M150.7077,-71.8314C145.6305,-63.7079 139.5405,-53.9637 133.9455,-45.0118"/>
<polygon fill="#c0c0c0" stroke="#c0c0c0" stroke-width="2" points="136.8395,-43.0383 128.5714,-36.4133 130.9035,-46.7483 136.8395,-43.0383"/>
</g>
<!-- 5 -->
<g id="node6" class="node">
<title>5</title>
<path fill="none" stroke="#56a2d8" stroke-width="2" d="M271.5631,-108C271.5631,-108 224.5631,-108 224.5631,-108 218.5631,-108 212.5631,-102 212.5631,-96 212.5631,-96 212.5631,-84 212.5631,-84 212.5631,-78 218.5631,-72 224.5631,-72 224.5631,-72 271.5631,-72 271.5631,-72 277.5631,-72 283.5631,-78 283.5631,-84 283.5631,-84 283.5631,-96 283.5631,-96 283.5631,-102 277.5631,-108 271.5631,-108"/>
<text text-anchor="middle" x="248.0631" y="-87.5" font-family="sans" font-size="10.00" fill="#000000">env_export</text>
</g>
<!-- 5&#45;&gt;0 -->
<g id="edge6" class="edge">
<title>5&#45;&gt;0</title>
<path fill="none" stroke="#c0c0c0" stroke-width="2" d="M215.0063,-71.8314C196.1615,-61.4739 172.5233,-48.4819 153.1906,-37.8563"/>
<polygon fill="#c0c0c0" stroke="#c0c0c0" stroke-width="2" points="154.815,-34.7553 144.3656,-33.0059 151.4433,-40.8898 154.815,-34.7553"/>
</g>
<!-- 6 -->
<g id="node7" class="node">
<title>6</title>
<path fill="none" stroke="#d8a456" stroke-width="2" d="M372.5631,-108C372.5631,-108 313.5631,-108 313.5631,-108 307.5631,-108 301.5631,-102 301.5631,-96 301.5631,-96 301.5631,-84 301.5631,-84 301.5631,-78 307.5631,-72 313.5631,-72 313.5631,-72 372.5631,-72 372.5631,-72 378.5631,-72 384.5631,-78 384.5631,-84 384.5631,-84 384.5631,-96 384.5631,-96 384.5631,-102 378.5631,-108 372.5631,-108"/>
<text text-anchor="middle" x="343.0631" y="-87.5" font-family="sans" font-size="10.00" fill="#000000">config_export</text>
</g>
<!-- 6&#45;&gt;0 -->
<g id="edge2" class="edge">
<title>6&#45;&gt;0</title>
<path fill="none" stroke="#c0c0c0" stroke-width="2" d="M301.3732,-74.8231C298.5659,-73.8532 295.7765,-72.9041 293.0631,-72 245.4562,-56.1375 190.0452,-39.4209 154.3085,-28.8641"/>
<polygon fill="#c0c0c0" stroke="#c0c0c0" stroke-width="2" points="154.9085,-25.3923 144.3271,-25.9247 152.931,-32.1072 154.9085,-25.3923"/>
</g>
</g>
</svg>
